<?xml version="1.0" encoding="utf-8"?>
<!-- Generator: Adobe Illustrator 27.8.0, SVG Export Plug-In . SVG Version: 6.00 Build 0)  -->
<svg version="1.1" id="Layer_1" xmlns="http://www.w3.org/2000/svg" xmlns:xlink="http://www.w3.org/1999/xlink" x="0px" y="0px"
	 viewBox="0 0 376.4 112" style="enable-background:new 0 0 376.4 112;" xml:space="preserve">
<style type="text/css">
	.st0{fill:#253471;}
	.st1{fill:#F27421;}
	.st2{fill:#EC1E24;}
	.st3{fill:#EAEAE9;}
	.st4{fill:#3953A3;}
</style>
<g>
	<g>
		<path class="st0" d="M114.8,41.8v-1.1c0-9.1,3-12.1,12.8-12.1c9.8,0,12.6,2,12.5,10.8l-7.6,0.1c0-3-0.3-4.1-4.8-4.1
			c-4,0-4.9,1-4.9,5.8v0.1c0,4.8,0.9,5.8,4.9,5.8c4.4,0,4.9-1.2,4.9-4.2l7.6,0.1c0.1,8.6-2.7,10.8-12.5,10.8
			C117.8,53.9,114.8,50.9,114.8,41.8z"/>
		<path class="st0" d="M143.1,48.2V33.4c0-1.7,0-3,0-4.3h7.7c0,1.3,0,2.5,0,4.2v4.3h9.2v-4.2c0-1.7,0-3,0-4.3h7.7c0,1.3,0,2.5,0,4.2
			v14.9c0,2.2,0,3.7,0,5.2h-7.7c0-1.5,0-3,0-5.1v-4h-9.2v4c0,2.2,0,3.7,0,5.2h-7.7C143.1,51.9,143.1,50.4,143.1,48.2z"/>
		<path class="st0" d="M171.6,33.4c0-1.7,0-3,0-4.3h20.3v6.3c-2.4,0-8.4,0-12.2,0h-0.4v2.8h11V44c-1.7,0-7.2,0-9.9,0h-1.1v3.1h0.8
			c3.8,0,9.5,0,12.2,0v6.3h-20.7c0-1.4,0-3,0-5.1V33.4z"/>
		<path class="st0" d="M195.2,33.4c0-1.7,0-3,0-4.3h20.3v6.3c-2.4,0-8.4,0-12.2,0h-0.4v2.8h11V44c-1.7,0-7.2,0-9.9,0h-1.1v3.1h0.8
			c3.8,0,9.5,0,12.2,0v6.3h-20.7c0-1.4,0-3,0-5.1V33.4z"/>
		<path class="st0" d="M218.9,33.4c0-1.7,0-3,0-4.3h14.7c6.8,0,10,2.1,10,8.7v0.1c0,4.1-1.1,6.6-3.8,7.9c0.5,0.9,1,1.8,1.5,2.8
			c0.9,1.7,1.8,3.4,2.6,4.9h-8.1c-0.4-0.9-1-2-1.6-3.2l-1.6-2.9h-6.1v1c0,2.2,0,3.7,0,5.2h-7.7c0-1.4,0-3,0-5.1V33.4z M226.5,35.4
			V41h5.2c3,0,4-0.7,4-2.8v-0.1c0-2-1-2.6-3.9-2.6H226.5z"/>
		<path class="st0" d="M245,45.5l7.8-0.1V46c0,1.3,0.5,1.6,4.3,1.6c3.6,0,4-0.4,4-1.5c0-1-0.6-1.5-6.4-2.1c-7.9-0.8-9.6-2.7-9.6-7.7
			c0-5.1,2.2-7.6,11.3-7.6c10.4,0,11.5,2.6,11.5,8.1l-7.7,0.1v-0.5c0-1.1-0.4-1.5-3.8-1.5c-3.1,0-3.6,0.4-3.6,1.3
			c0,0.9,0.6,1.2,6.2,1.7c7.9,0.8,9.6,2.9,9.6,7.9c0,5.6-2,8.1-11.5,8.1C247.1,53.9,245,52.2,245,45.5z"/>
		<path class="st0" d="M279.2,53.4h-7.7c0-1.4,0-2.9,0-5V33.2c0-1.6,0-2.9,0-4.1h14.4c7.2,0,10,2.3,10,9.2v0.1c0,6.9-2.8,9.3-10,9.3
			c-1.7,0-4.3,0-6.7,0v0.7C279.1,50.4,279.1,51.9,279.2,53.4z M279.1,35.4v5.9h5c2.9,0,3.9-0.8,3.9-2.9v-0.1c0-2.2-1-2.9-3.9-2.9
			H279.1z"/>
		<path class="st0" d="M297.9,41.8v-1.1c0-9.1,3-12.1,12.9-12.1c9.9,0,12.9,2.9,12.9,12.1v1.1c0,9.1-3,12.1-12.9,12.1
			C300.9,53.9,297.9,50.9,297.9,41.8z M315.7,41.3v-0.1c0-4.8-0.8-5.8-5-5.8c-4.1,0-5,1-5,5.8v0.1c0,4.8,0.9,5.8,5,5.8
			C314.9,47.1,315.7,46.1,315.7,41.3z"/>
		<path class="st0" d="M326.7,33.4c0-1.7,0-3,0-4.3h14.7c6.8,0,10,2.1,10,8.7v0.1c0,4.1-1.1,6.6-3.8,7.9c0.5,0.9,1,1.8,1.5,2.8
			c0.9,1.7,1.8,3.4,2.6,4.9h-8.1c-0.4-0.9-1-2-1.6-3.2l-1.6-2.9h-6.1v1c0,2.2,0,3.7,0,5.2h-7.7c0-1.4,0-3,0-5.1V33.4z M334.4,35.4
			V41h5.2c3,0,4-0.7,4-2.8v-0.1c0-2-1-2.6-3.9-2.6H334.4z"/>
		<path class="st0" d="M360.5,36h-2c-1.4,0-3.5,0-6.2,0v-6.9h24.1V36c-2.1,0-3.8,0-5.2,0h-3v12.3c0,2.2,0,3.7,0,5.2h-7.7
			c0-1.5,0-3,0-5.1V36z"/>
		<path class="st0" d="M116.5,76.8V63c0-1.5,0-2.7,0-3.8h10.5l2.1,5.8c1.3,3.7,2.7,7.7,3.6,10.3c0-3.7-0.1-8-0.1-9.4
			c0-2.2,0-4.2,0-6.7h6.4c0,1.1,0,2.3,0,3.8v13.6c0,2,0,3.4,0,4.7h-10.5l-2.6-7.1c-1.3-3.7-2.2-6.5-3.1-9.1c0,3.5,0.1,8.2,0.1,9.5
			c0,2.2,0,4.2,0,6.7h-6.4C116.5,80.1,116.5,78.7,116.5,76.8z"/>
		<path class="st0" d="M142.4,63.1c0-1.6,0-2.8,0-3.9h18.5V65c-2.2,0-7.6,0-11.1,0h-0.4v2.5h10v5.4c-1.6,0-6.5,0-9,0h-1v2.8h0.7
			c3.4,0,8.6,0,11.1,0v5.7h-18.9c0-1.3,0-2.7,0-4.7V63.1z"/>
		<path class="st0" d="M169.7,65.5h-1.8c-1.2,0-3.2,0-5.7,0v-6.3h22v6.3c-1.9,0-3.5,0-4.7,0h-2.7v11.2c0,2,0,3.3,0,4.7h-7.1
			c0-1.3,0-2.7,0-4.7V65.5z"/>
		<path class="st0" d="M186.1,76.7V63.1c0-1.6,0-2.7,0-3.9h7.1c0,1.2,0,2.3,0,3.8V67h8.4v-3.8c0-1.6,0-2.7,0-3.9h7.1
			c0,1.2,0,2.3,0,3.8v13.6c0,2,0,3.3,0,4.7h-7.1c0-1.3,0-2.7,0-4.7V73h-8.4v3.7c0,2,0,3.3,0,4.7h-7.1
			C186.1,80,186.1,78.7,186.1,76.7z"/>
		<path class="st0" d="M212,63.1c0-1.6,0-2.8,0-3.9h18.5V65c-2.2,0-7.6,0-11.1,0H219v2.5h10v5.4c-1.6,0-6.5,0-9,0h-1v2.8h0.7
			c3.4,0,8.6,0,11.1,0v5.7H212c0-1.3,0-2.7,0-4.7V63.1z"/>
		<path class="st0" d="M233.6,63.1c0-1.6,0-2.8,0-3.9H247c6.2,0,9.1,1.9,9.1,7.9v0.1c0,3.8-1,6-3.5,7.2c0.5,0.8,0.9,1.7,1.4,2.6
			c0.8,1.5,1.6,3.1,2.4,4.4H249c-0.4-0.8-0.9-1.8-1.4-2.9l-1.4-2.7h-5.6v0.9c0,2,0,3.4,0,4.7h-7c0-1.3,0-2.7,0-4.7V63.1z M240.6,65
			v5h4.7c2.8,0,3.7-0.6,3.7-2.6v-0.1c0-1.8-0.9-2.4-3.6-2.4H240.6z"/>
		<path class="st0" d="M258.5,81.4c0-1.3,0-2.7,0-4.7V63.1c0-1.5,0-2.7,0-3.8h7.1c0,1.2,0,2.3,0,3.8v12h3.8c2.2,0,4.7,0,7.2,0v6.3
			H258.5z"/>
		<path class="st0" d="M295.5,59.2c1.5,5.1,5.5,17.9,6.8,22.1h-7.7l-0.7-2.9h-8.2l-0.7,2.9h-7.5c1.4-4.2,5.4-17.1,6.9-22.1H295.5z
			 M287.2,72.8h5.2l-0.2-0.6c-0.6-2.4-1.2-4.8-1.8-6.9h-1.4c-0.5,2.1-1.1,4.6-1.7,7L287.2,72.8z"/>
		<path class="st0" d="M304.1,76.8V63c0-1.5,0-2.7,0-3.8h10.5l2.1,5.8c1.3,3.7,2.7,7.7,3.6,10.3c0-3.7-0.1-8-0.1-9.4
			c0-2.2,0-4.2,0-6.7h6.4c0,1.1,0,2.3,0,3.8v13.6c0,2,0,3.4,0,4.7h-10.5l-2.6-7.1c-1.3-3.7-2.2-6.5-3.1-9.1c0,3.5,0.1,8.2,0.1,9.5
			c0,2.2,0,4.2,0,6.7h-6.4C304.1,80.1,304.1,78.7,304.1,76.8z"/>
		<path class="st0" d="M330,63.1c0-1.5,0-2.7,0-3.8h11.6c8.7,0,11.4,2.7,11.4,10.6v1c0,7.9-2.7,10.6-11.4,10.6H330
			c0-1.3,0-2.7,0-4.7V63.1z M337,65.3v10h4.6c3.4,0,4.2-0.9,4.2-5v-0.1c0-4-0.8-5-4.2-5H337z"/>
		<path class="st0" d="M354.7,74.2l7.1-0.1v0.5c0,1.2,0.5,1.5,3.9,1.5c3.2,0,3.7-0.3,3.7-1.4c0-0.9-0.6-1.4-5.9-1.9
			c-7.2-0.7-8.7-2.4-8.7-7.1c0-4.6,2-7,10.3-7c9.5,0,10.5,2.4,10.5,7.4l-7,0.1v-0.5c0-1-0.4-1.4-3.5-1.4c-2.8,0-3.2,0.4-3.2,1.2
			c0,0.8,0.6,1.1,5.6,1.6c7.2,0.7,8.8,2.7,8.8,7.2c0,5.1-1.8,7.4-10.5,7.4C356.6,81.8,354.7,80.3,354.7,74.2z"/>
	</g>
	<g id="XMLID_00000044856642231068533280000005520886155396652426_">
		<g>
			<polygon class="st0" points="97,84 97,28 48.5,0 0,28 0,84 48.5,112 			"/>
			<path class="st1" d="M81.6,33c-0.9-0.5-1.2-1.1-1.3-1.4c-0.1-0.2,0.1-0.8,0.5-1.8l0.1-0.3c0.2-0.5,0.2-0.7,0-0.7
				c-0.5,0-0.8,0.1-0.9,0.1c-2.4,0.2-5-0.6-7.8-2.3c-1-0.6-2.2-1.2-3.6-1.9c-0.8-0.4-1.4-1.1-1.8-2c-0.2-0.4-1.1-2.2-2.6-5.3
				c-0.5-1-1.1-1.1-2-0.4c-2,1.7-3.3,3-4.2,3.9c-0.8,0.9-1.7,1.4-2.6,1.5c-2.8,0.4-5.1,1.6-6.9,3.8c-1,1.2-2.2,1.8-3.6,1.8L41.3,28
				c-1.9,0.1-3.5,0.4-4.7,1c-1.4,0.7-2.5,1.9-3.3,3.5c-0.2,0.5-0.7,0.9-1.4,1.1c-1.7,0.5-3.5,1.2-5.5,2.3c0,0-1.8,1.1-5.2,3.1
				c-0.7,0.5-0.9,1.1-0.6,1.8c0.1,0.3,0.4,0.7,0.7,1.3c0.2,0.3,0.3,0.6,0.4,0.9c0,0.2,0.1,0.3,0.1,0.5c0,2.7,1.1,5.7,3.5,8.8
				c0.4,0.5,0.7,0.9,1,1c0.4,0.1,0.8-0.1,1.2-0.8l1.1,1.9c0.2,0.4,0.5,0.7,0.7,0.9H30c-0.1-0.4-0.1-0.9,0-1.4l0.4-1.5
				c0.3-0.7,0.6-1.2,1-1.4c2.3-1.3,5.7-3.2,10.4-5.7c1.4-0.8,2.5-0.7,3.4,0.3c2.1,2.2,3.1,4.5,3.2,6.9c-0.3,0-0.6-0.1-0.9-0.1
				c-1.7-0.1-3.8,0.2-6.3,0.9c-0.1,0-0.5,0.2-1.3,0.5L35.8,55c-0.9,0.4-2.3,0.7-4.2,1.1c-2.6,0.5-8.3,1.9-12.4,1.3
				c-2.8-0.4-4.6-1.6-5.5-3.5c-0.9-1.9-0.7-4,0.7-6.3c0,0,0,0,0,0c0.3-0.5,0.2-0.7-0.2-0.8c-0.7,0-1.4,0.3-2.1,0.9
				c-1.6,1.4-2.5,3.2-2.5,5.4c0,2.2,0.8,4,2.4,5.5c1.9,1.8,4.2,2.8,6.9,3c5.3,0.4,7.2-0.9,7.9-0.9c0.4,0.1,0.5,0.4,0.6,0.7v0
				c0,0.5,0.1,1.4,0.3,2.6c0,0.3,0.1,0.6,0.2,0.9c0.2,1.6-0.2,2.9-1.2,3.8c-0.1,0.1-0.1,0.3,0,0.4c0.1,0.2,0.4,0.3,0.7,0.2
				c0.5-0.1,1,0,1.5,0.3c0.3,0.2,0.7,0.5,1.2,1c1,0.7,1.9,1,2.7,0.8l0,0c0,0,8.1-1.7,11-1.8c-0.3,1.2-0.9,2.2-1.7,3
				c-1.2,1.2-2.6,1.8-4.4,1.7c-1.1-0.1-3.2-0.1-6.4,0c-5,0.1-9.4,1-13.3,2.6c-5.6,2.2-8.3,4.4-12.7,10l43.3,25L97,84V49.7
				C92.5,39.4,87.7,36.1,81.6,33z M30.7,60.3c1.6-0.3,3.4-0.7,5.2-1.3l4.4-1.5c1.3-0.5,2.4-0.8,3.2-0.9c0.2,0,0.5-0.1,0.7-0.1
				c0.8,0.2,1.1,1.2,0.9,3.1c-0.1,1-0.3,1.7-0.7,2.2c-0.2,0.4-0.8,0.6-1.7,0.6c-1,0-2.4-0.1-4-0.3c-3.5-0.5-5.9-0.9-7.3-1.2
				C31.1,60.9,30.9,60.7,30.7,60.3z"/>
			<g>
				<polygon class="st2" points="33.2,103.2 97,66.3 97,57.5 25.5,98.7 				"/>
				<polygon class="st3" points="40.9,107.6 97,75.2 97,66.3 33.2,103.2 				"/>
				<polygon class="st4" points="40.9,107.6 48.5,112 97,84 97,75.2 				"/>
			</g>
		</g>
	</g>
</g>
</svg>
