<?xml version="1.0" encoding="utf-8"?>
<!-- Generator: Adobe Illustrator 27.8.0, SVG Export Plug-In . SVG Version: 6.00 Build 0)  -->
<svg version="1.1" id="Layer_1" xmlns="http://www.w3.org/2000/svg" xmlns:xlink="http://www.w3.org/1999/xlink" x="0px" y="0px"
	 viewBox="0 0 116 156.8" style="enable-background:new 0 0 116 156.8;" xml:space="preserve">
<style type="text/css">
	.st0{fill:#FF5A00;}
</style>
<g>
	<polygon class="st0" points="116,136.8 0,156.8 0,0 116,0 	"/>
	<g>
		<g>
			<path d="M43.8,73.8c0,0.3,0,0.5,0,0.8c0,0.2-0.1,0.3-0.2,0.5c-0.2-0.1-0.4-0.1-0.5-0.3c-0.8-1-1.7-2-2.5-3
				c-2.5-3.1-5.1-6.2-7.6-9.4c-0.2-0.3-0.4-0.8-0.4-1.1c0-2.7,1.1-4.8,3.3-6.3c0.6-0.4,1-0.9,1.2-1.6c0.3-1.1,0.6-2.2,0.9-3.5
				c-1.4,0.6-2.8,1.2-4.4,1.1c0.9-1.2,2-2.2,2.5-3.5c-1.1,1.1-2.4,1.8-4.1,1.4c0.6-1,1.2-2,1.8-3c-0.9,0.6-1.7,1.1-2.9,0.6
				c1.1-0.9,1.2-2.1,1.5-3.3c0.1-0.2,0.1-0.5,0.2-0.7c0.5-0.7,0.2-1.4-0.1-2.1c-0.2-0.5-0.5-0.6-1-0.5c-0.7,0.1-0.9,0-0.7-0.7
				c0.2-0.6,0.5-1.3,0.8-1.9c0.1-0.2,0.2-0.5,0.1-0.7c-0.1-0.2-0.4-0.3-0.6-0.3c-0.4,0-0.7,0.1-1.1,0.1c-0.5,0.1-1.1,0.2-1.6,0.2
				c-0.4,0-0.8-0.1-1.2-0.2c-0.6-0.2-1-0.6-1.6-0.7c-0.5-0.1-1-0.1-1.5-0.1c-0.4,0-0.5-0.1-0.7-0.4c-0.2-0.3-0.4-0.6-0.7-1.1
				c-0.4,0.6-0.8,1.1-1.2,1.6c-0.8-0.8-0.8-1.9-0.4-2.9c0.6-1.9,2.3-2.9,3.5-4.3c0.2-0.2,0.7-0.3,1-0.3c0.6,0,1.1,0.3,1.6,0.4
				c0.2,0,0.5,0,0.6-0.1c0.8-0.6,1.2-0.7,2.1-0.1c0.5,0.3,0.8,0.4,1.3,0c0.3-0.2,0.8-0.2,1.1-0.1c0.8,0.4,1.5,0.8,2.1,1.3
				c1.3,1,2.6,2.1,3.9,3.2c0.6,0.5,1,1.1,1.1,1.9c0.1,0.8,0.2,1.5,0.3,2.3c0,0.2,0.1,0.5,0.3,0.6c1.9,1.3,3.9,2.6,5.8,3.9
				c0,0,0.1,0,0.1,0c0.5-0.8,1-1.6,1.6-2.3c1.6-1.7,3.6-2.5,5.9-3c1.8-0.4,3.7-0.3,5.6-0.3c1.6,0,2.7-1.3,2.6-3
				c-1.5-0.1-3.1-0.2-4.7-0.3c-0.1,0.4,0.3,0.7,0.6,0.9c0.5,0.4,0.5,0.5,0,0.9c-0.6,0.5-1,0.5-1.7,0c-0.3-0.3-0.6-0.6-1.1-0.5
				c-0.1,0-0.2-0.1-0.4-0.2c1.2-1,0.1-2.2,0.4-3.3c0.2-0.1,0.4-0.2,0.7-0.3c0-0.1,0-0.1-0.1-0.2c-0.3,0.1-0.7,0.2-1,0.3
				c-1.7,0.5-3.4,0.9-5.1,0.7c-1.3-0.1-2.5-0.6-3.5-1.5c-1.6-1.5-1.5-4,0.2-5.4c0.3-0.3,0.7-0.5,1.2-0.3c-0.1,0.2-0.1,0.3-0.2,0.5
				c-1.2,2.1-0.3,4.1,2.1,4.6c1.2,0.3,2.4,0.2,3.6-0.1c0.9-0.2,1.8-0.5,2.8-0.8c-0.2-0.3-0.3-0.5-0.5-0.8c-0.5,0.6-0.7,0.1-1-0.2
				c-0.8-1.1-1.4-2.2-1.3-3.5c0-0.4-0.3-0.7-0.5-1.1c-0.2-0.3-0.1-0.5,0.2-0.7c1.4-0.8,2.7-1.8,4.4-2.2c0.2-0.1,0.5-0.3,0.6-0.5
				c0.6-1.3,1.6-1.7,2.9-1.8c0.6,0,1.1-0.1,1.7-0.1c0.6,0,1.1-0.2,1.5-0.7c0.8-0.9,1.7-1.4,2.9-1.6c0.4-0.1,0.7-0.3,1-0.6
				c0.6-0.5,1.2-1.1,1.8-1.6c0.3-0.3,0.5-0.2,0.7,0.1c0.4,0.7,0.7,1.5,1.1,2.2c0.2,0.3,0.4,0.6,0.6,0.8c0.5,0.3,1.1,0.6,1.6,0.9
				c0.9,0.6,1.9,0.9,3,0.9c0.1,0,0.3,0,0.5,0.1c-0.1,0.2-0.1,0.4-0.2,0.5c-0.3,0.4-0.2,0.7,0.2,1.1c2,1.5,3.3,3.6,4.3,5.8
				c0.8,1.8,1.6,3.6,2.4,5.4c0.4,0.8,0.8,1.5,1.6,2.1c0.1,0,0.1,0.1,0.2,0.2c-0.6,0.7-1.3,0.3-2.1,0.4c0.2,0.4,0.4,0.7,0.6,1
				c0.9,1.5,1,3.2,1.1,4.9c0.2,3.5-0.7,6.8-1.9,10c-0.1,0.2-0.2,0.5-0.1,0.7c0.3,1.9,0.1,3.8-0.3,5.7c-0.2,0.9-0.2,1.8-0.4,2.8
				c-1.5-0.5-2.2-1.7-2.9-3c0,0.6,0,1,0,1.5c0,1.2-0.2,2.4-0.6,3.5c-0.5,1.2-0.9,2.4-1.3,3.6c-2.1-0.5-2.3-2.4-2.9-4.1
				c0,2-0.7,3.9-1.2,5.8c-0.1,0.6-0.1,1.3-0.1,2c0,0.3,0,0.7,0,1c-0.8,0-1.8-0.8-1.9-1.7C71,65.2,71,64,71,62.7
				c0-1.2-0.5-1.7-1.7-1.7c-7.1,0-14.3,0-21.4-0.1c-1.3,0-1.7,0.4-1.7,1.7c0,3.8,0,7.6,0,11.4c0,0.2,0,0.3,0,0.5
				c-0.1,0.2-0.2,0.5-0.4,0.6c-0.2,0.1-0.6,0-0.8-0.1C44.6,74.7,44.2,74.3,43.8,73.8z M55.8,27.5c2.4-0.6,4.9-1.5,7.1,0.6
				c0.4-1.4,0-2.6-0.8-3.6c-0.6-0.8-1-0.9-1.9-0.4c-1.3,0.7-2.7,1.5-4,2.2C55.7,26.5,55.6,26.8,55.8,27.5z M59.1,30.8
				c0-0.4,0-0.7,0-0.9c-0.1-0.9-0.4-1.1-1.2-1c-0.6,0.1-1.2,0.3-1.7,0.5c-0.2,0.1-0.4,0.3-0.4,0.4c0.1,0.2,0.2,0.5,0.4,0.6
				C57.2,30.6,58.1,30.7,59.1,30.8z"/>
			<path d="M64.5,64.3c1.3,0,2.5,0,3.8,0c0,9.8,0,19.6,0,29.4c0.2,0,0.4,0,0.6,0c4.4,0,8.7,0,13.1,0c1.1,0,2.2-0.1,3.3,0
				c0.8,0,1.4-0.3,1.9-0.8c1.2-1.2,1.5-2.6,1-4.2c-0.3-1.2-1.1-2.2-1.9-3c-1.9-1.9-3.9-3.6-5.8-5.5c-1.1-1.1-2.1-2.2-3.1-3.3
				c-1.9-2.3-2.4-4.9-1.8-7.7c0.6-3.1,2.3-5.6,4.4-7.9c1.4-1.5,2.7-3.1,3.7-4.9c1.1-2,1.2-4.1,0.8-6.3c-0.1-0.3-0.1-0.5,0-0.9
				c0.1,0.1,0.3,0.2,0.4,0.3c2,2,2.9,4.4,2.7,7.2c-0.1,1.1-0.5,2.1-1.2,3c-0.3,0.3-0.3,0.5-0.1,0.8c1,1.6,0.2,3.6-1.1,4.3
				c-0.3,0.2-0.3,0.4-0.2,0.6c0.3,1,0.4,2-0.2,3c-0.4,0.7-1.1,0.9-1.9,1.1c0.5,1,0.8,1.9,0,2.8c-0.5,0.5-1.2,0.7-1.8,0.4
				c-1-0.4-1.2-1.2-1.1-2.2c-1.2,0.1-1.6,0.6-1.4,1.7c0.1,1,0.6,1.9,1.4,2.6c1.5,1.4,3,2.7,4.6,4c1.9,1.6,3.9,3,5.4,5.1
				c1.1,1.5,2.1,3,2.3,4.8c0.1,0.8,0,1.7,0,2.6c0,0.2,0,0.3-0.1,0.5c0.7,0.2,1.3,0,1.5-0.6c0.5-1.2,0-2-1.2-2.5
				c0.8-0.6,2.6-0.6,3.4-0.1c1.2,0.7,1.7,1.9,1.4,3.3c-0.5,1.7-1.8,2.2-3.4,2.2c0.1,0.6,0.3,1.2,0.3,1.8c0,0.9-0.8,1.6-1.8,1.7
				c-1,0.1-1.8-0.5-2-1.3c-0.1-0.3,0-0.5,0.3-0.5c0.8-0.2,1-0.7,0.5-1.6c-0.1,0.2-0.3,0.3-0.4,0.5c-0.9,1.1-1.8,2.2-3.2,2.7
				c-0.5,0.2-1.1,0.3-1.6,0.3c-4.4,0-8.8,0-13.2,0c-2.6,0-5.2,0-7.8,0c-0.2,0-0.3,0-0.5,0C64.5,86.4,64.5,75.4,64.5,64.3z"/>
			<path d="M25.7,68c0,11.5,0,22.9,0,34.4c-1.3,0-2.5,0-3.8,0c0-12.7,0-25.4,0-38.2c0.2,0,0.4,0,0.6,0c2.5,0,5,0,7.5,0
				c0.5,0,0.7,0.1,1,0.5c5.7,6.9,11.4,13.8,17.1,20.7c0.1,0.1,0.2,0.2,0.4,0.4c0-7.2,0-14.4,0-21.5c1.3,0,2.5,0,3.8,0
				c0,11.1,0,22.1,0,33.3c-0.2-0.2-0.4-0.3-0.5-0.4C46.3,90.5,40.7,83.7,35.1,77c-2.3-2.7-4.5-5.4-6.7-8.1c-0.5-0.7-1.1-1-1.9-0.9
				C26.2,68.1,26,68,25.7,68z"/>
			<path d="M53.5,98.6c0-11.5,0-22.9,0-34.3c1.3,0,2.5,0,3.7,0c0,12.7,0,25.4,0,38.1c-0.2,0-0.4,0-0.5,0c-2.5,0-5.1,0-7.6,0
				c-0.4,0-0.6-0.1-0.8-0.4c-5.7-6.9-11.4-13.8-17.2-20.7c-0.1-0.1-0.2-0.3-0.5-0.6c0,7.3,0,14.4,0,21.6c-1.3,0-2.5,0-3.8,0
				c0-11.1,0-22.1,0-33.3c0.3,0.3,0.4,0.4,0.6,0.6c4,4.8,8,9.7,12.1,14.5c3.9,4.7,7.8,9.4,11.7,14.1c0.3,0.3,0.5,0.5,0.9,0.4
				C52.6,98.6,53,98.6,53.5,98.6z"/>
			<path d="M92.3,102.4c-10.9,0-21.8,0-32.6,0c0-12.7,0-25.4,0-38.1c1.2,0,2.5,0,3.8,0c0,11.4,0,22.8,0,34.3c0.3,0,0.5,0,0.7,0
				c5.3,0,10.6,0,15.9,0c3.3,0,6.7,0,10,0c0.4,0,0.6,0.1,0.8,0.5C91.2,100.2,91.7,101.3,92.3,102.4z"/>
			<path d="M81.4,91.1c-0.9,0-1.7,0-2.6,0c-1.9,0-3.9,0-5.8,0c-1,0-1.5-0.5-1.5-1.5c-0.1-4.8-0.2-9.6-0.2-14.4
				c0-0.3-0.1-0.7,0.3-0.8c0.2,0,0.6,0.2,0.7,0.3c1.6,1.6,3.1,3.2,4.6,4.9c1.6,1.8,2.7,3.9,3.2,6.3C80.5,87.6,80.9,89.3,81.4,91.1z"
				/>
			<path d="M79.7,121.3c-0.5,0-1,0-1.5,0c0-5.8,0-11.5,0-17.3c0.2,0,0.4,0,0.6,0c2.8,0,5.6,0,8.3,0c2.4,0,4.3,1.4,4.8,3.8
				c0.5,2.1,0.1,4.1-1.5,5.6c-0.8,0.8-1.8,1.2-3,1.2c-0.2,0-0.3,0-0.5,0c0,0-0.1,0-0.2,0.1c1.8,2.2,3.5,4.3,5.3,6.6
				c-0.7,0-1.4,0-2,0c-0.1,0-0.3-0.1-0.3-0.2c-2.1-2.7-4.2-5.3-6.4-8c0,0-0.1-0.1-0.2-0.2c0.3,0,0.5,0,0.6,0c1,0,2.1-0.1,3.1,0
				c2.5,0.2,3.8-2.2,3.5-4.2c-0.3-2-1.5-3-3.6-3c-2.2,0-4.5,0-6.7,0c-0.2,0-0.4,0-0.7,0C79.7,110.9,79.7,116.1,79.7,121.3z"/>
			<path d="M80.2,106.2c0.3,0,0.7,0,1,0c2,0,4,0.1,6,0c2-0.1,3.1,1.5,3.1,3.1c0,1.7-1.1,3.3-3.1,3.2c-1.4-0.1-2.7,0-4.1,0
				c-0.2,0-0.4,0-0.7,0c2.4,3,4.8,6,7.2,9c-0.7,0-1.4,0-2,0c-0.2,0-0.4-0.3-0.5-0.4c-1.7-2.1-3.4-4.2-5.1-6.4
				c-0.1-0.1-0.2-0.2-0.4-0.4c0,2.5,0,4.8,0,7.2c-0.5,0-1,0-1.5,0C80.2,116.3,80.2,111.3,80.2,106.2z M81.7,108c0,0.9,0,1.8,0,2.7
				c1.9,0,3.8,0,5.7,0c0.9,0,1.4-0.5,1.4-1.4c0-0.8-0.5-1.4-1.4-1.4c-1.7,0-3.5,0-5.2,0C82,107.9,81.9,108,81.7,108z"/>
			<path d="M52.1,105.7c0,4.7,0,9.2,0,13.9c3.8,0,7.6,0,11.5,0c0,0.6,0,1.1,0,1.7c-4.3,0-8.6,0-12.9,0c0-5.8,0-11.5,0-17.3
				c4.3,0,8.6,0,12.9,0c-0.2,0.5-0.4,1-0.6,1.5c-0.1,0.1-0.3,0.2-0.5,0.2c-3.2,0-6.4,0-9.7,0C52.5,105.7,52.3,105.7,52.1,105.7z"/>
			<path d="M66,119.6c3.8,0,7.6,0,11.4,0c0,0.6,0,1.1,0,1.7c-4.3,0-8.5,0-12.9,0c0-5.8,0-11.5,0-17.3c4.3,0,8.5,0,12.9,0
				c-0.2,0.5-0.4,1.1-0.6,1.5c-0.1,0.1-0.3,0.1-0.5,0.1c-3.2,0-6.4,0-9.6,0c-0.7,0-0.7,0-0.7,0.7c0,4.2,0,8.5,0,12.7
				C65.9,119.2,65.9,119.4,66,119.6z"/>
			<path d="M34.8,104c-0.2,0.6-0.4,1-0.6,1.5c-0.1,0.1-0.3,0.2-0.5,0.2c-1.2,0-2.5,0-3.7,0c-3,0-5,1.4-6.1,4.2
				c-1.1,2.9-0.3,6.4,2,8.4c1,0.9,2.2,1.3,3.6,1.3c1.8,0,3.5,0,5.3,0c0,0.6,0,1.1,0,1.7c0,0,0,0,0,0c-2.2,0-4.5,0.2-6.7-0.2
				c-2.8-0.4-4.5-2.4-5.5-4.9c-1.3-3.4-0.8-8,2.7-10.8c1.2-0.9,2.6-1.4,4.1-1.4c1.6,0,3.2,0,4.9,0C34.4,104,34.5,104,34.8,104z"/>
			<path d="M34.8,117.4c0,0.6,0,1.1,0,1.7c-0.2,0-0.4,0-0.6,0c-1.4,0-2.9,0-4.3,0c-2.7,0-4.6-1.3-5.6-3.8c-1.1-2.7-0.4-6,1.8-7.9
				c0.9-0.8,1.9-1.2,3.1-1.2c1.5,0,2.9,0,4.4,0c0.1,0,0.2,0,0.4,0c-0.2,0.5-0.4,1-0.6,1.5c-0.1,0.1-0.3,0.2-0.4,0.2
				c-1,0-2,0.1-3.1,0c-2.8-0.2-4.4,2.2-4.5,4.3c-0.1,2.1,0.8,4,2.5,4.8c0.5,0.2,1,0.3,1.6,0.4c1.7,0,3.5,0,5.2,0
				C34.7,117.4,34.7,117.4,34.8,117.4z"/>
			<path d="M52.5,119.1c0-2.1,0-4.1,0-6.1c3,0,5.9,0,8.9,0c0,0.5,0,1.1,0,1.7c-2.5,0-4.9,0-7.4,0c0,0.9,0,1.8,0,2.7
				c3.2,0,6.3,0,9.5,0c0,0.6,0,1.1,0,1.7C59.9,119.1,56.2,119.1,52.5,119.1z"/>
			<path d="M66.4,112.9c3,0,5.9,0,8.8,0c0,0.6,0,1.1,0,1.7c-2.4,0-4.8,0-7.3,0c0,0.9,0,1.8,0,2.8c3.1,0,6.3,0,9.4,0
				c0,0.6,0,1.1,0,1.7c-3.7,0-7.3,0-10.9,0C66.4,117,66.4,115,66.4,112.9z"/>
			<path d="M37.6,112.9c3.4,0,6.7,0,10.1,0c0,2.8,0,5.6,0,8.4c-0.5,0-0.9,0-1.5,0c0-2.2,0-4.4,0-6.7c-2.4,0-4.7,0-7,0
				c0,2.2,0,4.4,0,6.7c-0.6,0-1.1,0-1.6,0C37.6,118.5,37.6,115.8,37.6,112.9z"/>
			<path d="M37.6,104c0.5,0,1,0,1.6,0c0,2.2,0,4.5,0,6.7c2.4,0,4.7,0,7,0c0-2.2,0-4.4,0-6.6c0.5,0,1,0,1.5,0c0,2.8,0,5.5,0,8.3
				c-3.4,0-6.7,0-10.1,0C37.6,109.5,37.6,106.8,37.6,104z"/>
			<path d="M75.2,110.7c0,0.6,0,1.1,0,1.7c-2.9,0-5.8,0-8.8,0c0-2,0-4.1,0-6.1c3.4,0,6.7,0,10.1,0c-0.2,0.5-0.3,1-0.6,1.4
				c-0.1,0.1-0.4,0.2-0.5,0.2c-2.3,0-4.6,0-6.9,0c-0.2,0-0.4,0-0.6,0c0,0.9,0,1.8,0,2.7C70.3,110.7,72.7,110.7,75.2,110.7z"/>
			<path d="M54,110.7c0.5,0,0.9,0,1.3,0c1.8,0,3.7,0,5.5,0c0.4,0,0.5,0.1,0.5,0.5c0,0.4,0,0.8,0,1.2c-3,0-5.9,0-8.9,0c0-2,0-4,0-6.1
				c3.4,0,6.7,0,10.2,0c-0.2,0.5-0.4,1-0.6,1.5c-0.1,0.1-0.3,0.2-0.5,0.2c-2.3,0-4.6,0-6.9,0c-0.2,0-0.4,0-0.6,0
				C54,108.8,54,109.7,54,110.7z"/>
			<path d="M37.2,121.3c-0.5,0-1,0-1.5,0c0-5.8,0-11.5,0-17.3c0.5,0,1,0,1.5,0C37.2,109.7,37.2,115.5,37.2,121.3z"/>
			<path d="M49.7,121.3c-0.5,0-1,0-1.5,0c0-5.8,0-11.6,0-17.4c0.5,0,1,0,1.5,0C49.7,109.7,49.7,115.5,49.7,121.3z"/>
		</g>
	</g>
</g>
</svg>
